<?xml version="1.0" encoding="UTF-8"?>
<svg version="1.1" xmlns="http://www.w3.org/2000/svg" width="1024" height="1024">
<path d="M0 0 C337.92 0 675.84 0 1024 0 C1024 337.92 1024 675.84 1024 1024 C686.08 1024 348.16 1024 0 1024 C0 686.08 0 348.16 0 0 Z " fill="#FEFEFE" transform="translate(0,0)"/>
<path d="M0 0 C1.61771608 0.62751175 3.23056193 1.26769228 4.83886719 1.91894531 C5.70211609 2.26080872 6.56536499 2.60267212 7.45477295 2.95489502 C9.26536626 3.67563254 11.07372154 4.40201578 12.87988281 5.13378906 C15.63540954 6.24693593 18.4003143 7.33385817 21.16699219 8.41894531 C22.93323983 9.12572463 24.69888691 9.83400703 26.46386719 10.54394531 C27.28477844 10.8649823 28.1056897 11.18601929 28.95147705 11.51678467 C34.26535492 13.69858392 38.70009275 16.12577143 41.38574219 21.49707031 C41.20846871 24.49742391 40.86857793 27.46658425 40.54199219 30.45410156 C40.22590632 33.41489742 40.22590632 33.41489742 41.05371094 35.84472656 C41.57932424 40.04344926 39.83673907 43.30434001 38.19824219 47.12207031 C37.89337891 47.88519531 37.58851563 48.64832031 37.27441406 49.43457031 C34.33854853 56.4511043 34.33854853 56.4511043 30.38574219 58.49707031 C29.72574219 58.49707031 29.06574219 58.49707031 28.38574219 58.49707031 C27.85207031 60.17736328 27.85207031 60.17736328 27.30761719 61.89160156 C24.68373687 69.75253903 21.62035034 77.45551848 18.63574219 85.18457031 C18.31026398 86.02956085 17.98478577 86.87455139 17.64944458 87.74514771 C12.01150575 102.38177793 6.2809567 116.9811238 0.48632812 131.55639648 C-0.94611073 135.1609714 -2.3675074 138.76973186 -3.78186035 142.38143921 C-4.34568762 143.81446918 -4.91394095 145.24576421 -5.48620605 146.67544556 C-6.33777641 148.8046399 -7.17456695 150.9391543 -8.00878906 153.07519531 C-8.26306168 153.70111069 -8.51733429 154.32702606 -8.77931213 154.97190857 C-12.37958455 164.31744404 -12.08662057 175.16410358 -8.21972656 184.39160156 C-5.55593827 189.54418476 -2.58733783 194.51794909 0.375 199.50341797 C3.79385539 205.30437645 6.61473846 210.96965658 8.38574219 217.49707031 C8.73636719 218.63789063 9.08699219 219.77871094 9.44824219 220.95410156 C10.90234898 226.89326451 10.79374829 232.91477397 10.82324219 238.99707031 C10.85611328 240.16238281 10.88898438 241.32769531 10.92285156 242.52832031 C10.98150528 252.25417285 8.69509163 260.49053026 5.38574219 269.49707031 C5.1405484 270.17151184 4.89535461 270.84595337 4.64273071 271.54083252 C2.77034835 276.65691954 0.8031759 281.73434613 -1.17675781 286.80957031 C-1.82999407 288.49507348 -2.4828965 290.18070606 -3.13549805 291.86645508 C-5.28592112 297.41357898 -7.44893639 302.95574785 -9.61425781 308.49707031 C-9.9908252 309.46116821 -10.36739258 310.42526611 -10.75537109 311.4185791 C-17.01975018 327.45335172 -23.3143995 343.47621068 -29.61425781 359.49707031 C-33.44805373 369.24688852 -37.28164635 378.99678643 -41.11425781 388.74707031 C-41.58636688 389.94801331 -42.05847595 391.1489563 -42.54489136 392.3862915 C-48.09127627 406.49720586 -53.61641314 420.61528026 -59.0703125 434.76220703 C-64.64546675 449.2051314 -70.31737279 463.61022638 -75.97436523 478.02124023 C-80.68139911 490.01324678 -85.38090618 502.00808304 -90.05883789 514.01147461 C-91.3721839 517.38126765 -92.6884664 520.7498877 -94.00756836 524.11743164 C-96.82192405 531.30630944 -99.62457461 538.49805425 -102.35197449 545.72045898 C-103.51079502 548.78414965 -104.6820992 551.84298689 -105.85501099 554.90130615 C-106.3922713 556.31238515 -106.92351968 557.7257717 -107.44796753 559.1416626 C-110.8791813 568.401226 -114.53038486 576.77852718 -123.36425781 581.99707031 C-131.89947973 585.55474946 -140.3944576 583.43746822 -148.59863281 580.08691406 C-149.51991974 579.72830795 -150.44120667 579.36970184 -151.39041138 579.00022888 C-154.38872379 577.82874613 -157.37615366 576.63182256 -160.36425781 575.43457031 C-162.47176205 574.60604719 -164.58000924 573.77941162 -166.68896484 572.95458984 C-170.96657912 571.27938549 -175.24050898 569.59527302 -179.51171875 567.90380859 C-187.36409249 564.79917083 -195.25025053 561.7848108 -203.13827515 558.77224731 C-207.05971892 557.27075028 -210.9752004 555.75384681 -214.89160156 554.23925781 C-220.91754247 551.90926271 -226.95429567 549.61026644 -233.00134277 547.33560181 C-236.77596731 545.91266399 -240.5452415 544.47588948 -244.31378174 543.03692627 C-246.11463246 542.35298116 -247.91777226 541.67502793 -249.72332764 541.00360107 C-270.23985463 533.36773811 -270.23985463 533.36773811 -275.25415039 524.64404297 C-280.06039699 513.5235047 -275.38300012 502.85872955 -271.28027344 492.29603577 C-269.86486095 488.73188929 -268.4273166 485.17713295 -266.98925781 481.62207031 C-265.98457074 479.09564217 -264.98734207 476.5662927 -263.99023438 474.03686523 C-261.91888066 468.79118724 -259.83279251 463.55160747 -257.73632812 458.31591797 C-254.7529779 450.86209217 -251.81356715 443.39163961 -248.88769531 435.91503906 C-247.96225252 433.55102032 -247.03679687 431.18700662 -246.11132812 428.82299805 C-245.43100525 427.08504471 -245.43100525 427.08504471 -244.73693848 425.3119812 C-242.45546869 419.49078415 -240.16359582 413.67368957 -237.87207031 407.85644531 C-232.97853505 395.43037382 -228.10395364 382.99695743 -223.23925781 370.55957031 C-222.87084778 369.61782959 -222.50243774 368.67608887 -222.12286377 367.70581055 C-216.6614023 353.74416163 -211.21104914 339.77819058 -205.76486206 325.81057739 C-201.80007356 315.64307448 -197.82530591 305.47955821 -193.83691406 295.32128906 C-193.42642822 294.27563278 -193.01594238 293.2299765 -192.59301758 292.15263367 C-190.90859706 287.86209806 -189.22408034 283.5716012 -187.5380249 279.28170776 C-182.78551683 267.18886826 -178.06058436 255.08637808 -173.39941406 242.95800781 C-172.54568288 240.74054889 -171.69192347 238.52310084 -170.83813477 236.30566406 C-169.23720227 232.14685085 -167.64443574 227.98503962 -166.05639648 223.82128906 C-162.71413742 215.10476489 -159.28604175 206.46307663 -155.33691406 198.00097656 C-154.86925629 196.99428421 -154.86925629 196.99428421 -154.39215088 195.96725464 C-145.07408318 176.50915631 -128.3076008 164.4304932 -108.75097656 156.57128906 C-105.20853295 155.35812344 -101.62208242 154.44938069 -97.98925781 153.55957031 C-88.17237091 151.04757264 -80.38994535 146.98210244 -74.61425781 138.49707031 C-70.52247548 131.2063351 -67.56106772 123.48856143 -64.61425781 115.68457031 C-63.57790237 112.96948602 -62.53596159 110.25656109 -61.49316406 107.54394531 C-61.20518448 106.79414902 -60.9172049 106.04435272 -60.62049866 105.27183533 C-56.47541455 94.50489873 -52.22762458 83.77810895 -47.98217773 73.05044556 C-47.03083628 70.64560487 -46.08063526 68.2403127 -45.1315918 65.83456421 C-43.78348795 62.41759543 -42.43179111 59.00206966 -41.07910156 55.58691406 C-40.67328354 54.55685242 -40.26746552 53.52679077 -39.84934998 52.46551514 C-38.29562867 48.55305234 -36.73843656 44.74274795 -34.83813477 40.9831543 C-33.31926775 37.89785152 -33.52916914 36.01704766 -33.86425781 32.62207031 C-34.02224463 26.65978504 -32.76841435 22.25396536 -30.42675781 16.87207031 C-30.13510742 16.18516113 -29.84345703 15.49825195 -29.54296875 14.79052734 C-27.56467116 10.53113152 -25.74897654 8.61847829 -21.61425781 6.49707031 C-20.252492 4.51632004 -18.91832665 2.51627368 -17.61425781 0.49707031 C-13.11547142 -4.66820295 -5.70286096 -2.03935155 0 0 Z " fill="#000000" transform="translate(376.6142578125,221.5029296875)"/>
<path d="M0 0 C7.52586039 1.44849196 14.64824984 4.1363539 21.84667969 6.71777344 C24.81512642 7.74674128 27.79931547 8.68638197 30.8046875 9.6015625 C32.29186279 10.05583618 32.29186279 10.05583618 33.80908203 10.51928711 C35.71672089 11.09769238 37.62648133 11.66915962 39.53857422 12.23266602 C44.35495923 13.71473368 48.06623067 15.08758293 51.734375 18.71875 C53.26704082 21.78408164 52.83713971 24.98629272 52.796875 28.34375 C52.79236328 29.05015625 52.78785156 29.7565625 52.78320312 30.484375 C52.77141375 32.22920275 52.75347824 33.973987 52.734375 35.71875 C49.764375 35.22375 49.764375 35.22375 46.734375 34.71875 C46.76917969 35.96011719 46.80398438 37.20148438 46.83984375 38.48046875 C46.86799084 40.12238226 46.89529001 41.76431046 46.921875 43.40625 C46.94701172 44.22287109 46.97214844 45.03949219 46.99804688 45.88085938 C47.05584901 50.63990215 46.96431357 53.94231423 43.734375 57.71875 C42.8784375 58.09515625 42.0225 58.4715625 41.140625 58.859375 C38.22307947 61.113842 38.26659351 61.84387451 37.765625 65.390625 C37.56843005 67.41480817 37.39300556 69.4411801 37.234375 71.46875 C37.0098628 73.7440852 36.77910266 76.01881027 36.54296875 78.29296875 C36.41905762 79.50001465 36.29514648 80.70706055 36.16748047 81.95068359 C35.4229875 88.42785632 34.36167994 94.85019464 33.296875 101.28125 C33.18826141 101.93867188 33.07964783 102.59609375 32.96774292 103.2734375 C32.4283452 106.53651629 31.88537991 109.79897691 31.33984375 113.06103516 C30.78773889 116.39637184 30.25600212 119.73400284 29.734375 123.07421875 C27.04794431 140.09849787 23.50291619 156.936149 19.23828125 173.63671875 C14.11094368 193.78336915 16.59223734 208.66608718 23.71533203 227.99707031 C29.78030798 244.52067254 28.03775115 264.16794525 22.734375 280.71875 C22.38898682 281.8018042 22.38898682 281.8018042 22.03662109 282.90673828 C20.80935447 286.70542068 19.53623449 290.48666855 18.23828125 294.26171875 C15.23893519 303.0426614 12.78158772 311.99706198 10.265625 320.92578125 C5.8688447 336.49771149 5.8688447 336.49771149 3.234375 344.15625 C1.1786525 350.15974533 -0.51445278 356.2108944 -2.140625 362.34375 C-4.09251024 369.68553596 -6.24573403 376.90535194 -8.703125 384.09375 C-13.22889876 397.34485562 -17.0417874 410.79542106 -20.828125 424.2734375 C-23.39772981 433.39939272 -26.1063054 442.43290832 -29.15649414 451.41040039 C-31.69128756 458.89634016 -33.8606824 466.47141282 -35.90478516 474.10595703 C-38.42533447 483.51138947 -40.99736219 492.7750806 -44.890625 501.71875 C-45.16753174 502.3586084 -45.44443848 502.9984668 -45.72973633 503.65771484 C-48.87130565 510.55447755 -52.44047567 514.58327566 -59.31445312 517.67919922 C-68.55561432 520.93439978 -77.85446949 518.10019174 -86.765625 515.09375 C-89.06358235 514.35218332 -91.36176166 513.61130414 -93.66015625 512.87109375 C-94.78244629 512.5035498 -95.90473633 512.13600586 -97.06103516 511.75732422 C-101.50404106 510.31739224 -105.97441378 508.98000252 -110.453125 507.65625 C-112.06139662 507.17644679 -113.66946848 506.6959735 -115.27734375 506.21484375 C-116.08349121 505.97362793 -116.88963867 505.73241211 -117.72021484 505.48388672 C-123.37730424 503.78339581 -129.02592674 502.05490959 -134.67578125 500.33056641 C-140.24033241 498.63394228 -145.80987361 496.95567352 -151.38574219 495.29663086 C-154.6396619 494.32658157 -157.89064646 493.34708289 -161.14013672 492.36230469 C-163.05708685 491.78189112 -164.97571084 491.20701279 -166.89453125 490.6328125 C-175.8489324 487.83105995 -182.75877474 484.49312684 -188.265625 476.71875 C-195.04199421 462.65778389 -187.86046852 446.45978003 -183.30419922 432.85888672 C-181.84371818 428.44311165 -180.51705206 423.99236457 -179.203125 419.53125 C-178.7221367 417.92033906 -178.24036143 416.30966289 -177.7578125 414.69921875 C-177.51643555 413.89274902 -177.27505859 413.0862793 -177.02636719 412.25537109 C-173.64834827 400.99169439 -170.25256457 389.73521141 -166.63793945 378.54492188 C-163.43424118 368.6244859 -160.52061679 358.65141259 -157.74560547 348.6027832 C-155.85973135 341.78856894 -153.84986266 335.04148923 -151.703125 328.3046875 C-149.69070074 321.94483496 -147.80137525 315.54719609 -145.890625 309.15625 C-142.85859075 299.02035972 -139.8054228 288.89135517 -136.71704102 278.77246094 C-135.14864233 273.63025963 -133.59193576 268.48487953 -132.05395508 263.33349609 C-131.32530937 260.89683428 -130.59051566 258.46208124 -129.85546875 256.02734375 C-128.6750556 252.11034817 -127.53098216 248.18386777 -126.39453125 244.25390625 C-119.27740928 219.95534662 -110.52262126 200.79369439 -88.9765625 186.03857422 C-75.04240663 176.49590098 -69.16300003 164.92330942 -63.95108032 149.1583252 C-53.53825533 117.79514295 -40.70930125 87.09030346 -26.2109375 57.390625 C-25.7780542 56.50334717 -25.3451709 55.61606934 -24.89916992 54.7019043 C-24.13469692 53.15470083 -23.35739912 51.6137257 -22.5637207 50.08129883 C-20.59017205 46.12494976 -19.93182314 43.94804133 -21.265625 39.71875 C-22.73524636 33.84709999 -22.73524636 33.84709999 -21.50048828 30.88037109 C-20.35808059 28.98241077 -19.13337249 27.19591924 -17.828125 25.40625 C-14.59247713 21.40668447 -14.59247713 21.40668447 -13.265625 16.71875 C-15.245625 15.72875 -15.245625 15.72875 -17.265625 14.71875 C-15.16172583 5.36808704 -9.81681206 -0.68375805 0 0 Z " fill="#010101" transform="translate(871.265625,286.28125)"/>
<path d="M0 0 C20.39031562 20.22145172 33.19630477 57.49433542 39 85 C39.26490234 86.24559692 39.26490234 86.24559692 39.53515625 87.51635742 C44.43665503 112.12231895 40.77231508 137.93169361 29 160 C28.68015137 160.60134766 28.36030273 161.20269531 28.03076172 161.82226562 C20.14065398 176.28405106 9.06119209 187.37370946 -3.328125 197.99609375 C-10.8282776 204.07242086 -10.8282776 204.07242086 -14.24487305 212.66015625 C-14.47993432 222.73958377 -12.50655079 231.36240711 -9.8125 241 C-9.18248159 243.32947803 -8.55886292 245.66060597 -7.93582153 247.99195862 C-7.52516913 249.52781318 -7.11265302 251.06317073 -6.69821167 252.5980072 C-5.05101293 258.7183939 -3.59803983 264.86920051 -2.25 271.0625 C-0.65681741 278.30829984 1.15968936 285.44992663 3.19189453 292.5847168 C4.59042631 297.49508035 5.89729677 302.41915548 7.125 307.375 C7.28806641 308.03081055 7.45113281 308.68662109 7.61914062 309.36230469 C8.36765143 312.38842695 9.09785646 315.41789907 9.80859375 318.453125 C11.05075005 323.67919192 12.29848448 328.30171213 15 333 C15.309375 333.7425 15.61875 334.485 15.9375 335.25 C17.30429326 337.50118889 18.63373629 337.89148006 21 339 C21.61359375 339.33 22.2271875 339.66 22.859375 340 C23.48328125 340.33 24.1071875 340.66 24.75 341 C25.36359375 341.33 25.9771875 341.66 26.609375 342 C33.01305777 344.67866469 39.03886035 345.27497385 45.8828125 345.23828125 C47.56120612 345.25368779 49.23959172 345.26999044 50.91796875 345.28710938 C53.52931639 345.30359329 56.14006909 345.31245938 58.75146484 345.30541992 C61.29591474 345.30279579 63.83859928 345.33092319 66.3828125 345.36328125 C67.15795197 345.35307449 67.93309143 345.34286774 68.73171997 345.33235168 C72.71905627 345.40394169 75.32001235 345.83309695 78.53857422 348.28979492 C81 351 81 351 81 355 C69.04503309 358.73672972 57.08045161 362.02829525 44.87890625 364.85546875 C39.55654398 366.09081542 34.28467167 367.48714585 29.01171875 368.91796875 C24.16354398 370.23325034 19.29981099 371.48819782 14.4375 372.75 C7.81437833 374.46969943 1.19768044 376.21065968 -5.41015625 377.98828125 C-28.43860799 384.18324057 -28.43860799 384.18324057 -39.75 386.875 C-40.55195801 387.06586182 -41.35391602 387.25672363 -42.18017578 387.45336914 C-47.76299445 388.75886615 -53.37262472 389.9037389 -59 391 C-59.49406479 383.71254428 -59.49406479 383.71254428 -57.30175781 380.55078125 C-54.90930823 377.89949643 -52.93831889 376.57452666 -49.78125 374.94921875 C-48.77175293 374.41973633 -47.76225586 373.89025391 -46.72216797 373.34472656 C-45.12719482 372.52439941 -45.12719482 372.52439941 -43.5 371.6875 C-41.3235407 370.53367532 -39.14903547 369.37615666 -36.9765625 368.21484375 C-35.42050293 367.38315674 -35.42050293 367.38315674 -33.83300781 366.53466797 C-23.0976855 360.71923915 -15.09388568 354.938997 -11 343 C-8.9006133 330.45941571 -13.63815002 318.23819505 -17.05517578 306.34863281 C-18.49175218 301.25713877 -19.7888429 296.13431019 -21.0625 291 C-21.30492432 290.02732178 -21.54734863 289.05464355 -21.79711914 288.05249023 C-23.63496692 280.61614372 -25.35761919 273.1552814 -27.0625 265.6875 C-31.4373297 238.52548223 -31.4373297 238.52548223 -45 216 C-50.22567019 212.77308845 -55.48004949 212.05385804 -61.4375 211.125 C-90.34047607 206.18448305 -114.34479268 192.36816506 -131.73828125 168.41796875 C-151.35964834 139.51887571 -155.43499743 104.78336721 -155.20581055 70.63452148 C-155.18726603 67.77644104 -155.18530382 64.91868198 -155.18554688 62.06054688 C-155.18063922 60.21353889 -155.17481422 58.36653307 -155.16796875 56.51953125 C-155.16685593 55.67985306 -155.1657431 54.84017487 -155.16459656 53.97505188 C-155.12411214 48.90510579 -154.95660312 43.98792807 -154 39 C-151.11837163 37.07891442 -149.38853912 36.45597524 -146.08984375 35.66796875 C-145.10918945 35.42941162 -144.12853516 35.19085449 -143.11816406 34.94506836 C-142.06854492 34.6950708 -141.01892578 34.44507324 -139.9375 34.1875 C-132.50838769 32.37780188 -125.10506416 30.52893207 -117.75 28.4375 C-111.93901638 26.79376845 -106.11441101 25.25390009 -100.25 23.8125 C-90.55251598 21.42713738 -80.90292223 18.87063867 -71.25 16.3125 C-55.4770576 12.13257892 -39.66505688 8.12655029 -23.82128906 4.22387695 C-23.0066217 4.02232498 -22.19195435 3.82077301 -21.3526001 3.6131134 C-19.83827321 3.23857827 -18.32345687 2.86601377 -16.80804443 2.49589539 C-13.71006004 1.72884128 -10.68839956 0.89412566 -7.6652832 -0.13305664 C-4.54434532 -1.14821194 -3.05841444 -1.1716314 0 0 Z " fill="#010101" transform="translate(572,414)"/>
</svg>
