<?xml version="1.0" encoding="UTF-8"?>
<svg version="1.1" viewBox="0 0 14 14" xmlns="http://www.w3.org/2000/svg">
    
    <path d="M8.25 0v4.5s-.375.25-.75.25.5-1.5.5-1.5c.04-.18-.055-.25-.25-.25h-.75s-.125 1-.25 2L5.5.75l-.75.25s.25.5.25 1.5.5 2.25.5 2.25-1-.75-2-2-.5.75-.5.75l1 1c.75 2.25 3.25 2.25 3.25 2.25l1-.75v.75h1v-1.25l.5-.25-.5 1.75h1.75s.75-1.25 1.25-2.25c.25-.5.25-1.25.25-1.25l-.5-.25-1.5 2.75.75-3.25h-1s-.17.875-.34 1.75c-.08-.125-.16-.25-.16-.25s-.25.125-.5.25v-4z" style="opacity:.5"/>
    
    
    <path d="m5 14-1-10c2.5 1.5 4.75 2 7.75 1.5z"/>
</svg>
